<?xml version="1.0" standalone="no"?>
<!DOCTYPE svg PUBLIC "-//W3C//DTD SVG 20010904//EN"
 "http://www.w3.org/TR/2001/REC-SVG-20010904/DTD/svg10.dtd">
<svg version="1.0" xmlns="http://www.w3.org/2000/svg"
 width="87.000000pt" height="87.000000pt" viewBox="0 0 87.000000 87.000000"
 preserveAspectRatio="xMidYMid meet">
<metadata>
Created by potrace 1.11, written by Peter Selinger 2001-2013
</metadata>
<g transform="translate(0.000000,87.000000) scale(0.100000,-0.100000)"
fill="#000000" stroke="none">
<path d="M415 836 c-92 -32 -194 -83 -230 -114 -46 -39 -125 -140 -125 -159 0
-23 31 -83 43 -83 4 0 7 -13 7 -30 0 -16 -4 -30 -10 -30 -27 0 0 -157 29 -168
28 -9 62 -46 80 -87 17 -38 43 -67 100 -115 13 -11 28 -20 33 -20 5 0 16 -7
24 -15 28 -27 78 -18 131 24 53 42 244 218 255 235 4 6 8 35 8 64 0 28 4 52 8
52 4 0 16 13 25 30 15 24 16 39 9 77 -4 27 -7 72 -4 101 3 49 1 55 -28 82 -23
21 -42 30 -66 30 -19 0 -34 3 -34 8 0 15 -136 152 -150 151 -8 -1 -55 -15
-105 -33z m159 -346 c13 -27 13 -30 -2 -30 -9 0 -28 -9 -42 -20 -14 -11 -29
-20 -35 -20 -5 0 -3 5 5 10 12 8 12 10 1 10 -8 0 0 16 20 39 19 22 35 40 36
40 1 1 8 -12 17 -29z m-189 -126 c-24 -94 -34 -112 -56 -107 -19 5 -19 7 -3
24 9 10 19 17 23 15 3 -2 7 7 7 20 2 24 36 115 42 110 1 -2 -4 -30 -13 -62z
m215 28 c15 -12 22 -29 23 -57 2 -104 -22 -154 -109 -232 -78 -69 -89 -76
-113 -68 -35 11 -102 65 -95 77 4 7 3 8 -4 4 -11 -7 -62 62 -62 84 0 10 19 14
53 10 10 -1 24 4 32 10 15 13 26 1 30 -34 1 -11 3 -24 4 -28 1 -10 43 -10 58
0 9 6 7 15 -7 37 -19 29 -19 29 6 58 13 15 24 34 24 41 0 17 35 48 43 39 4 -3
7 -17 7 -29 0 -13 10 -30 22 -38 12 -9 18 -16 12 -16 -5 0 -20 7 -32 16 -21
14 -22 14 -22 -11 0 -36 38 -52 80 -35 31 13 38 28 20 46 -8 8 -8 25 0 58 12
54 8 66 -23 66 -18 0 -19 2 -7 10 22 14 35 12 60 -8z m-347 -90 c-3 -12 -10
-22 -15 -22 -5 0 -7 -4 -3 -9 3 -5 1 -12 -5 -16 -22 -13 -20 24 2 47 27 29 29
29 21 0z m-93 -19 c0 -8 -5 -11 -10 -8 -6 4 -8 11 -5 16 4 5 1 9 -4 9 -6 0
-11 5 -11 11 0 8 5 8 15 -1 8 -7 15 -19 15 -27z m553 20 c-9 -24 -33 -47 -40
-39 -4 3 4 17 17 31 28 30 32 31 23 8z"/>
<path d="M539 463 c-13 -16 -12 -17 4 -4 9 7 17 15 17 17 0 8 -8 3 -21 -13z"/>
<path d="M365 126 c-31 -22 -8 -38 44 -30 31 5 41 11 39 23 -4 21 -57 26 -83
7z"/>
</g>
</svg>
